<?xml version="1.0" standalone="no"?>
<!DOCTYPE svg PUBLIC "-//W3C//DTD SVG 20010904//EN"
 "http://www.w3.org/TR/2001/REC-SVG-20010904/DTD/svg10.dtd">
<svg version="1.0" xmlns="http://www.w3.org/2000/svg"
 width="512.000000pt" height="512.000000pt" viewBox="0 0 512.000000 512.000000"
 preserveAspectRatio="xMidYMid meet">

<g transform="translate(0.000000,512.000000) scale(0.100000,-0.100000)"
fill="#000000" stroke="none">
<path d="M2350 5009 c-252 -29 -520 -117 -732 -242 -643 -378 -974 -1115 -828
-1839 36 -175 96 -338 205 -553 212 -419 461 -802 1080 -1660 155 -214 315
-439 355 -498 76 -109 100 -128 137 -109 11 6 55 62 98 124 43 62 207 291 365
508 649 895 909 1292 1114 1700 137 275 196 473 215 725 22 293 -34 583 -164
850 -239 489 -688 839 -1226 959 -201 44 -425 57 -619 35z m421 -535 c117 -19
272 -70 376 -123 139 -70 154 -66 -241 -66 l-354 0 -43 -30 c-82 -59 -79 -32
-79 -623 0 -568 -2 -549 57 -604 39 -37 73 -48 149 -48 l64 0 0 -417 c0 -317
3 -424 13 -443 l13 -25 180 -3 c159 -2 183 0 195 14 11 14 15 98 17 446 l3
428 65 0 c35 0 79 6 97 14 39 16 82 61 96 99 7 19 11 204 11 543 0 442 -2 519
-15 544 -9 17 -13 30 -9 30 14 0 132 -112 189 -180 153 -184 245 -379 291
-616 25 -131 23 -349 -5 -482 -108 -515 -490 -906 -1001 -1023 -127 -30 -349
-36 -481 -15 -555 92 -979 506 -1085 1061 -37 189 -19 439 43 630 107 327 339
603 640 758 111 57 272 112 384 131 116 19 315 19 430 0z"/>
<path d="M2144 4235 c-203 -44 -345 -204 -394 -445 -17 -83 -20 -137 -20 -442
l0 -347 22 -15 c16 -12 47 -16 110 -16 l88 0 0 -423 c0 -418 0 -424 21 -443
19 -17 37 -19 170 -18 104 1 153 5 164 14 13 11 15 133 15 1066 l0 1053 -22
15 c-27 19 -71 19 -154 1z"/>
</g>
</svg>
